Simulation
nRows=20
nColumns=15
endheader
time  TH_x TH_y TH_z SC_y  SC_z  SC_x  AC_y  AC_z  AC_x  GH_y  GH_z  GH_yy  EL_x  PS_y
8.6175  0.000000  0.000000  0.000000  -33.9763621627801  -3.823288059606609  17.257683966979815  48.39734177314367  -23.657069883407413  -6.79066537840929  -18.21328352488327  22.07633898343761  24.056747136742946  20.658786850846766  120.000000
8.67495  0.000000  0.000000  0.000000  -34.027392059189744  -3.697193448609077  16.23244930423798  48.978984425514604  -23.236953901826805  -5.486136769503194  -18.600416284477568  22.730036528621156  24.1728198370404  20.5880694910734  120.000000
8.7324  0.000000  0.000000  0.000000  -34.117516184855745  -3.679859172990497  15.032500123709221  49.786759202334146  -22.851964041979347  -3.8438060621386847  -18.32382997892945  23.583641095021168  23.862028309838443  20.693048037065637  120.000000
8.78985  0.000000  0.000000  0.000000  -34.2549372908937  -3.778616065621437  13.645391451357098  50.83874575854705  -22.437046975523057  -1.8721557956082542  -17.28245569337577  24.61390351468189  23.000387220135913  20.94999373194426  120.000000
8.8473  0.000000  0.000000  0.000000  -34.441189963758106  -3.9729549582216324  12.092124220827015  52.132609368607255  -21.903570333647547  0.38312720606245443  -15.461640880166179  25.76647106413605  21.507871257511496  21.29197746370715  120.000000
8.90475  0.000000  0.000000  0.000000  -34.69642308519227  -4.205076910758788  10.426931728772118  53.65237535266301  -21.16528207423736  2.850215307825568  -12.871807842015052  26.967191347091322  19.317368489980385  21.64483944856683  120.000000
8.9622  0.000000  0.000000  0.000000  -35.073612007042364  -4.384284499170104  8.734658568333884  55.37120699058312  -20.16167408919737  5.4482225632044825  -9.48568869861697  28.134248421178995  16.335651465329423  21.957637531076543  120.000000
9.01965  0.000000  0.000000  0.000000  -35.63853068260759  -4.369994494155721  7.1268905224279395  57.23946118281042  -18.891466677175888  8.107100952900218  -5.243077685470122  29.20158178313925  12.442244180028032  22.20377069896232  120.000000
9.0771  0.000000  0.000000  0.000000  -36.42405730026599  -3.9595289367886966  5.740282470148166  59.17795380980486  -17.441722403416136  10.788648331630014  -0.11308348978522642  30.14842028830546  7.515321227095552  22.36380211576477  120.000000
9.13455  0.000000  0.000000  0.000000  -37.3996353891494  -2.9561816089518063  4.709016648602558  61.070933055473446  -15.893907848437367  13.440134423086315  5.889069257252281  30.987848856866282  1.440202286542297  22.416780840818344  120.000000
9.192  0.000000  0.000000  0.000000  -38.48068000508665  -1.272908491577067  4.115662848227631  62.79381572366255  -14.154318770026531  15.916210969437492  12.828268806472721  31.739888878563377  -5.974422383613521  22.35590314733586  120.000000
9.24945  0.000000  0.000000  0.000000  -39.57362483481436  1.046050281254686  3.9947801974934567  64.23509100804235  -11.98599505254332  18.018917741387025  20.838056719497114  32.51132036567668  -14.937555841728003  22.199012797765878  120.000000
9.3069  0.000000  0.000000  0.000000  -40.64582024512786  3.8888284626955842  4.367268822899258  65.27747493909067  -9.19608172815127  19.604460969840428  29.817676865341276  33.56454542709316  -25.373957838192997  21.95050356442243  120.000000
9.36435  0.000000  0.000000  0.000000  -41.75277241842516  7.092475197329469  5.273527533989194  65.82751561786455  -5.742673784816477  20.670492682334423  39.265284974121634  35.177266131827935  -36.74014091078557  21.614099454444858  120.000000
9.421800000000001  0.000000  0.000000  0.000000  -42.98955771346761  10.424691839523566  6.782299701163344  65.86122736624115  -1.7628606592013991  21.405764700642433  48.43735874100849  37.46334037871046  -48.186213523711295  21.199500551041787  120.000000
9.47925  0.000000  0.000000  0.000000  -44.4586908179734  13.611731625788623  8.96824399999164  65.39495274677607  2.475512714994104  22.09321953390421  56.61269367153867  40.272417167596956  -58.851499514228856  20.71755097341934  120.000000
9.5367  0.000000  0.000000  0.000000  -46.281223159794735  16.394872153581364  11.864600680762658  64.46766558582178  6.630486514500854  22.967370578655363  63.37244327937381  43.24446820987005  -68.16190837167682  20.199816112488662  120.000000
9.59415  0.000000  0.000000  0.000000  -48.53507642270044  18.554600466541395  15.410306570208734  63.15174759090337  10.338071588323785  24.137230545710814  68.67638604173932  45.98339599855586  -75.91161480777487  19.681615029693436  120.000000
9.6516  0.000000  0.000000  0.000000  -51.17163580785288  19.941886983477875  19.422966177343206  61.582229736209904  13.29941912144434  25.561278157784677  72.72793454291354  48.22001202354019  -82.13746955090483  19.195417978833962  120.000000
9.70905  0.000000  0.000000  0.000000  -53.98939749368849  20.549634353121522  23.613794536187672  59.9618097012971  15.363357466526688  27.075895096367187  75.78379707623897  49.87750805512889  -86.95885510303937  18.774842735464734  120.000000
